<?xml version="1.0" encoding="UTF-8" standalone="no"?>
<svg
   xmlns:dc="http://purl.org/dc/elements/1.1/"
   xmlns:cc="http://creativecommons.org/ns#"
   xmlns:rdf="http://www.w3.org/1999/02/22-rdf-syntax-ns#"
   xmlns:svg="http://www.w3.org/2000/svg"
   xmlns="http://www.w3.org/2000/svg"
   xmlns:sodipodi="http://sodipodi.sourceforge.net/DTD/sodipodi-0.dtd"
   xmlns:inkscape="http://www.inkscape.org/namespaces/inkscape"
   enable-background="new 0 0 512 512"
   height="512px"
   id="Layer_1"
   version="1.1"
   viewBox="0 0 512 512"
   width="512px"
   xml:space="preserve"
   inkscape:version="0.48.4 r9939"
   sodipodi:docname="convertir.svg"><metadata
     id="metadata9"><rdf:RDF><cc:Work
         rdf:about=""><dc:format>image/svg+xml</dc:format><dc:type
           rdf:resource="http://purl.org/dc/dcmitype/StillImage" /><dc:title></dc:title></cc:Work></rdf:RDF></metadata><defs
     id="defs7" /><sodipodi:namedview
     pagecolor="#ffffff"
     bordercolor="#666666"
     borderopacity="1"
     objecttolerance="10"
     gridtolerance="10"
     guidetolerance="10"
     inkscape:pageopacity="0"
     inkscape:pageshadow="2"
     inkscape:window-width="1366"
     inkscape:window-height="706"
     id="namedview5"
     showgrid="false"
     inkscape:zoom="0.4609375"
     inkscape:cx="218.0339"
     inkscape:cy="256"
     inkscape:window-x="0"
     inkscape:window-y="27"
     inkscape:window-maximized="1"
     inkscape:current-layer="Layer_1" /><path
     d="M 158.9166,87.523246 V 10.847458 L 261.68549,113.61815 H 185.0109 c -14.38833,0 -26.0943,-11.70657 -26.0943,-26.094904 z M 261.68549,125.66168 V 318.91526 H 9.8316441 V 10.847458 H 146.87307 v 76.675788 c 0,21.029834 17.1086,38.139034 38.13843,38.139034 h 76.67399 z M 30.325373,51.108068 c 0,3.325568 2.696796,6.022966 6.022966,6.022966 h 87.052611 c 3.32316,0 6.02116,-2.697398 6.02116,-6.022966 0,-3.324364 -2.69739,-6.021763 -6.02116,-6.021763 H 36.348339 c -3.325568,0 -6.022966,2.697399 -6.022966,6.021763 z m 0,56.887852 c 0,3.32557 2.696796,6.02296 6.022966,6.02296 h 87.052611 c 3.32316,0 6.02116,-2.69739 6.02116,-6.02296 0,-3.32437 -2.69739,-6.02056 -6.02116,-6.02056 H 36.348339 c -3.325568,-6.1e-4 -6.022966,2.69619 -6.022966,6.02056 z M 241.19717,278.65826 c 0,-3.32316 -2.69739,-6.02056 -6.02296,-6.02056 H 36.348339 c -3.325568,0 -6.022966,2.6974 -6.022966,6.02056 0,3.32556 2.696796,6.02296 6.022966,6.02296 H 235.17421 c 3.32557,0 6.02296,-2.6974 6.02296,-6.02296 z m 0,-56.88785 c 0,-3.32316 -2.69739,-6.02056 -6.02296,-6.02056 H 36.348339 c -3.325568,0 -6.022966,2.6974 -6.022966,6.02056 0,3.32557 2.696796,6.02297 6.022966,6.02297 H 235.17421 c 3.32557,0 6.02296,-2.6974 6.02296,-6.02297 z m 0,-56.88725 c 0,-3.32316 -2.69739,-6.02056 -6.02296,-6.02056 H 36.348339 c -3.325568,0 -6.022966,2.6974 -6.022966,6.02056 0,3.32557 2.696796,6.02297 6.022966,6.02297 H 235.17421 c 3.32557,0 6.02296,-2.6974 6.02296,-6.02297 z"
     id="path3"
     inkscape:connector-curvature="0"
     style="fill:#0c7f7f;fill-opacity:1" /><path
     d="m 398.31058,265.25206 v -76.67579 l 102.76889,102.77069 h -76.67459 c -14.38833,0 -26.0943,-11.70657 -26.0943,-26.0949 z m 102.76889,38.13843 V 496.64407 H 249.22562 v -308.0678 h 137.04143 v 76.67579 c 0,21.02984 17.1086,38.13903 38.13843,38.13903 h 76.67399 z M 269.71934,228.83688 c 0,3.32557 2.6968,6.02297 6.02297,6.02297 h 87.05262 c 3.32316,0 6.02116,-2.6974 6.02116,-6.02297 0,-3.32436 -2.69739,-6.02176 -6.02116,-6.02176 h -87.05262 c -3.32557,0 -6.02297,2.6974 -6.02297,6.02176 z m 0,56.88785 c 0,3.32557 2.6968,6.02296 6.02297,6.02296 h 87.05262 c 3.32316,0 6.02116,-2.69739 6.02116,-6.02296 0,-3.32436 -2.69739,-6.02056 -6.02116,-6.02056 h -87.05262 c -3.32557,-6e-4 -6.02297,2.6962 -6.02297,6.02056 z m 210.87181,170.66234 c 0,-3.32316 -2.69739,-6.02056 -6.02296,-6.02056 H 275.74231 c -3.32557,0 -6.02297,2.6974 -6.02297,6.02056 0,3.32556 2.6968,6.02296 6.02297,6.02296 h 198.82588 c 3.32557,0 6.02296,-2.6974 6.02296,-6.02296 z m 0,-56.88785 c 0,-3.32316 -2.69739,-6.02056 -6.02296,-6.02056 H 275.74231 c -3.32557,0 -6.02297,2.6974 -6.02297,6.02056 0,3.32557 2.6968,6.02297 6.02297,6.02297 h 198.82588 c 3.32557,0 6.02296,-2.6974 6.02296,-6.02297 z m 0,-56.88725 c 0,-3.32316 -2.69739,-6.02056 -6.02296,-6.02056 H 275.74231 c -3.32557,0 -6.02297,2.6974 -6.02297,6.02056 0,3.32557 2.6968,6.02297 6.02297,6.02297 h 198.82588 c 3.32557,0 6.02296,-2.6974 6.02296,-6.02297 z"
     id="path3-0"
     inkscape:connector-curvature="0"
     style="fill:#e70f7f;fill-opacity:1" /><g
     id="Icons with numbers"
     style="fill:#efeea3;fill-opacity:0.92857139;stroke:none"
     transform="matrix(11.423943,15.171937,-15.171937,11.423943,295.76419,56.500262)"><g
       transform="translate(-96,-336)"
       id="Group"
       style="fill:#efeea3;fill-opacity:0.92857139"><path
         id="Shape"
         d="m 112,344 -6,-5 0,3 c -4.5,0 -8,1 -10,6 3,-2.5 6,-3 10,-2 l 0,3 6,-5 0,0 z m 0,0"
         inkscape:connector-curvature="0"
         style="fill:#efeea3;fill-opacity:0.92857139" /></g></g></svg>