/* XPM */
static char *ico_nfs_cliente[] = {
/* columns rows colors chars-per-pixel */
"32 32 139 2 ",
"   c #7E903A",
".  c #648464",
"X  c #6C8966",
"o  c #65866D",
"O  c #638372",
"+  c #969600",
"@  c #9C9C00",
"#  c #AAAA00",
"$  c #B3B300",
"%  c #B1BA1B",
"&  c #8C9D3C",
"*  c #99A72F",
"=  c #A8A832",
"-  c #C6C600",
";  c #CED10D",
":  c #D6D600",
">  c #DBDA00",
",  c #D4D70A",
"<  c #C5CA12",
"1  c #CFD01C",
"2  c #DBDB1A",
"3  c #E6E704",
"4  c #ECEB00",
"5  c #F5F500",
"6  c #F8F700",
"7  c #FEFE00",
"8  c #F0F00B",
"9  c #FEFE09",
"0  c #E2E219",
"q  c #EFEF1B",
"w  c #FCFC13",
"e  c #FBFB1A",
"r  c #FCFC23",
"t  c #FDFD30",
"y  c #809549",
"u  c #A6A679",
"i  c #BEC36E",
"p  c #FDFD4A",
"a  c #F2F261",
"s  c #FDFD6E",
"d  c #567D9F",
"f  c #4C7AA3",
"g  c #4379A8",
"h  c #497BA9",
"j  c #5C8183",
"k  c #578291",
"l  c #5F829F",
"z  c #4E80A9",
"x  c #5582A6",
"c  c #5B84A4",
"v  c #5683A8",
"b  c #5B85A9",
"n  c #5A88AC",
"m  c #4C85B6",
"M  c #5285B5",
"N  c #5A8AB3",
"B  c #538CBE",
"V  c #5A8ABC",
"C  c #5C90BC",
"Z  c #6386A3",
"A  c #6887A1",
"S  c #718CA3",
"D  c #7590A7",
"F  c #4D8BC1",
"G  c #578EC1",
"H  c #5D8FC0",
"J  c #5290C4",
"K  c #5D93C4",
"L  c #5D96C8",
"P  c #5F98C9",
"I  c #6395C5",
"U  c #669AC7",
"Y  c #6D9AC6",
"T  c #6499C9",
"R  c #6B9DCA",
"E  c #719CC7",
"W  c #729EC8",
"Q  c #6EA0CE",
"!  c #74A3CD",
"~  c #7AA6CD",
"^  c #79A7D1",
"/  c #7DA9D1",
"(  c #8B8B8B",
")  c #949494",
"_  c #9C9C9C",
"`  c #869AAA",
"'  c #9DA7AF",
"]  c #98A7B3",
"[  c #9DAAB5",
"{  c #A5A5A5",
"}  c #ACACAC",
"|  c #B4B4AE",
" . c #A5ACB1",
".. c #ACB5BD",
"X. c #AEB8BF",
"o. c #B3B3B3",
"O. c #BCBCBC",
"+. c #F8F88F",
"@. c #F8F890",
"#. c #D4D6BD",
"$. c #FDFDA1",
"%. c #FCFCAB",
"&. c #FBFBB3",
"*. c #FDFDBE",
"=. c #83ACD1",
"-. c #88AFD3",
";. c #8BB1D3",
":. c #92B5D5",
">. c #9CBBD8",
",. c #B1B9C0",
"<. c #BEBEC0",
"1. c #A2BEDA",
"2. c #C0BFC1",
"3. c #BFC5CA",
"4. c #A6C0DB",
"5. c #ACC3DC",
"6. c #B2C6DE",
"7. c #B6C8DF",
"8. c #BECDE1",
"9. c #C4C4C4",
"0. c #CCCCCC",
"q. c #CDCFD1",
"w. c #CBD0D3",
"e. c #D3D3D3",
"r. c #D5D7D9",
"t. c #D6D8DA",
"y. c #DBDBDC",
"u. c #EEEECC",
"i. c #FDFDC5",
"p. c #FDFDCC",
"a. c #E1E1D6",
"s. c #FBFBDB",
"d. c #E4E5E5",
"f. c #EBEBEB",
"g. c #FBFBEB",
"h. c #F4F3F3",
"j. c #F8F7F7",
"k. c #FEFEF2",
"l. c #FFFFFF",
/* pixels */
"l.l.l.l.l.l.l.l.l.l.l.l.l.l.l.l.l.l.l.l.l.l.l.l.l.l.l.l.l.l.l.l.",
"l.l.l.l.l.l.l.l.l.l.l.l.l.l.l.l.l.l.l.l.l.l.l.l.l.l.l.l.l.l.l.l.",
"l.l.l.l.l.l.l.l.l.l.l.l.l.l.l.l.l.l.l.l.l.l.l.l.l.l.l.l.l.l.l.l.",
"l.l.l.l.l.l.l.l.l.l.l.l.l.l.l.l.l.l.l.l.l.l.l.l.l.l.l.l.l.l.l.l.",
"l.l.l.l.l.l.l.l.i.%.%.%.&.j.l.l.l.l.l.l.l.l.l.l.l.l.l.l.l.l.l.l.",
"l.l.l.l.l.l.l.p.e 7 7 7 9 $.l.l.l.l.l.l.l.l.l.l.l.l.l.l.l.l.l.l.",
"l.l.l.l.l.l.d.i % < 4 7 7 t p.s.s.s.s.s.s.g.l.l.l.l.l.l.l.l.l.l.",
"l.l.l.l.j.,.Z n C c X < 7 7 w e e e w e e &.l.l.l.l.l.l.l.l.l.l.",
"l.l.l.l.,.v R / / ^ R j ; 7 7 7 7 7 7 7 7 %.l.l.l.l.l.l.l.l.l.l.",
"l.l.l.f.A R =.:.>.:./ L y 6 7 7 7 6 7 6 7 @.s.s.s.s.g.l.l.l.l.l.",
"l.l.l.t.b ! :.5.7.1.;.Q O 4 7 7 7 6 7 7 7 w e e e r %.l.l.l.l.l.",
"l.l.l.y.b Q :.4.6.1.-.Q o 4 7 7 7 7 7 7 7 7 7 7 7 p k.l.l.l.l.l.",
"l.l.l.h.S I / :.:.:./ H & 7 7 7 7 7 7 7 7 7 7 7 w *.l.l.l.l.l.l.",
"l.l.l.l. .f R ! ^ ! T h   3 7 7 7 7 7 7 6 7 7 7 s l.l.l.l.l.l.l.",
"l.l.j...l M V C H V V G m . , 7 7 7 7 5 # : 7 r s.l.l.l.l.l.l.l.",
"l.l.[ z L U R W E W W R K F . 3 7 6 6 > $ 6 7 +.l.l.l.l.l.l.l.l.",
"l.w.x P Y ~ =.-.:.-.=.~ Y K m * 4 @ # $ + 4 = a.l.l.l.l.l.l.l.l.",
"l.` B Y E -.:.>.>.>.:.-.~ I L o > + - > - 8 u t.l.l.l.l.l.l.l.l.",
"f.A K Y ~ ;.>.5.6.5.1.:.=.Y T k 1 2 0 q 0 a | y.l.l.l.l.l.l.l.l.",
"f.Z I Y =.:.1.6.8.7.4.:.=.W T x #.s.s.u.u.g.l.l.l.l.l.h.h.l.l.l.",
"d.Z P Y ~ :.>.5.6.5.1.:.=.Y I v r.<.<.q.q.f.l.l.l.l.l.O.0.l.l.l.",
"f.c L U Q -.:.>.>.>.:.-.~ Y G x 9.o.j.e.O.e.9.O.y.O.0.) o.q.o.h.",
"f.x J C Y ^ =.-.;.-.=.~ Q K h D e.<.e.9.o._ ( } 2.( 9.0.9.) _ y.",
"f.l F B K R Q ! ^ ! Q R C d ' f.h.{ O.d.9.9.} O.e.0.y.y.0.O.} d.",
"l.X.f g m J K P H C N Z ` w.l.l.l.j.l.l.l.l.j.j.l.j.l.l.j.j.j.l.",
"l.l.w...] S D D ` [ 3.d.l.l.l.l.l.l.l.l.l.l.l.l.l.l.l.l.l.l.l.l.",
"l.l.l.l.l.j.j.j.l.l.l.l.l.l.l.l.l.l.l.l.l.l.l.l.l.l.l.l.l.l.l.l.",
"l.l.l.l.l.l.l.l.l.l.l.l.l.l.l.l.l.l.l.l.l.l.l.l.l.l.l.l.l.l.l.l.",
"l.l.l.l.l.l.l.l.l.l.l.l.l.l.l.l.l.l.l.l.l.l.l.l.l.l.l.l.l.l.l.l.",
"l.l.l.l.l.l.l.l.l.l.l.l.l.l.l.l.l.l.l.l.l.l.l.l.l.l.l.l.l.l.l.l.",
"l.l.l.l.l.l.l.l.l.l.l.l.l.l.l.l.l.l.l.l.l.l.l.l.l.l.l.l.l.l.l.l.",
"l.l.l.l.l.l.l.l.l.l.l.l.l.l.l.l.l.l.l.l.l.l.l.l.l.l.l.l.l.l.l.l."
};
